<svg xmlns="http://www.w3.org/2000/svg" width="107.282" height="112.239" viewBox="0 0 107.282 112.239">
  <g id="Group_869" data-name="Group 869" transform="translate(0)">
    <g id="Ellipse_3" data-name="Ellipse 3" transform="translate(37.004 0.044) rotate(45)" fill="none" stroke="#00274a" stroke-width="1">
      <ellipse cx="49.694" cy="26.166" rx="49.694" ry="26.166" stroke="none"/>
      <ellipse cx="49.694" cy="26.166" rx="49.194" ry="25.666" fill="none"/>
    </g>
    <g id="doctor_2_" data-name="doctor (2)" transform="translate(43.095 34.724)">
      <g id="Group_856" data-name="Group 856" transform="translate(10.6 11.777)">
        <g id="Group_855" data-name="Group 855" transform="translate(0)">
          <path id="Path_505" data-name="Path 505" d="M200.957,160.322a.551.551,0,0,0-.551.551v.589a.551.551,0,1,0,1.1,0v-.589A.551.551,0,0,0,200.957,160.322Z" transform="translate(-200.406 -160.322)" fill="#00274a"/>
        </g>
      </g>
      <g id="Group_858" data-name="Group 858" transform="translate(17.666 11.777)">
        <g id="Group_857" data-name="Group 857">
          <path id="Path_506" data-name="Path 506" d="M297.149,160.322a.551.551,0,0,0-.551.551v.589a.551.551,0,1,0,1.1,0v-.589A.551.551,0,0,0,297.149,160.322Z" transform="translate(-296.598 -160.322)" fill="#00274a"/>
        </g>
      </g>
      <g id="Group_860" data-name="Group 860" transform="translate(12.366 15.899)">
        <g id="Group_859" data-name="Group 859">
          <path id="Path_507" data-name="Path 507" d="M228.93,216.6a.551.551,0,0,0-.779-.005,2.428,2.428,0,0,1-2.759,0,.551.551,0,1,0-.774.784,3.476,3.476,0,0,0,4.307,0A.551.551,0,0,0,228.93,216.6Z" transform="translate(-224.454 -216.435)" fill="#00274a"/>
        </g>
      </g>
      <g id="Group_862" data-name="Group 862" transform="translate(10.011 10.011)">
        <g id="Group_861" data-name="Group 861">
          <path id="Path_508" data-name="Path 508" d="M194.119,136.274h-1.178a.551.551,0,1,0,0,1.1h1.178a.551.551,0,1,0,0-1.1Z" transform="translate(-192.39 -136.274)" fill="#00274a"/>
        </g>
      </g>
      <g id="Group_864" data-name="Group 864" transform="translate(17.077 10.011)">
        <g id="Group_863" data-name="Group 863">
          <path id="Path_509" data-name="Path 509" d="M290.311,136.274h-1.178a.551.551,0,1,0,0,1.1h1.178a.551.551,0,1,0,0-1.1Z" transform="translate(-288.582 -136.274)" fill="#00274a"/>
        </g>
      </g>
      <g id="Group_866" data-name="Group 866" transform="translate(0)">
        <g id="Group_865" data-name="Group 865">
          <path id="Path_510" data-name="Path 510" d="M82.6,26.243l-3.971-1.221a1.263,1.263,0,0,0-.7-1.207l-2.456-1.228V20.836a8.218,8.218,0,0,0,3.454-5.6h.327a2.088,2.088,0,0,0,2.1-1.817,2.02,2.02,0,0,0-1.167-2.044V5.262A4.089,4.089,0,0,0,76.1,1.178H76A6.946,6.946,0,0,0,71.939,0a14.046,14.046,0,0,0-6.853,1.547,23.9,23.9,0,0,1-3.423,1.321.551.551,0,0,0-.354.741,5,5,0,0,0,.9,1.306,4.506,4.506,0,0,0-.793,2.9V11.4a2.01,2.01,0,0,0,.845,3.835h.411a8.216,8.216,0,0,0,3.454,5.6v1.75l-2.456,1.228a1.263,1.263,0,0,0-.7,1.207L59,26.243a4.064,4.064,0,0,0-2.884,3.9v6.914a.551.551,0,0,0,1.1,0V30.147A2.967,2.967,0,0,1,59.322,27.3l4.131-1.27.729.972-.828.828a1.726,1.726,0,0,0-.324,2l1.577,3.154H63.1V32.35a.551.551,0,0,0-1.1,0v.627H59.609a.551.551,0,0,0-.551.551v3.533a.551.551,0,0,0,.551.551H65.5a.551.551,0,0,0,.551-.551v-1.2l.723,1.446a.551.551,0,0,0,.986-.493l-3.742-7.485a.626.626,0,0,1,.117-.724L65.3,27.439a.551.551,0,0,0,.051-.72L64.1,25.055a.17.17,0,0,1,.06-.254l2.17-1.085,1.532,5.252a.551.551,0,1,0,1.058-.308l-.241-.828a6.447,6.447,0,0,0,4.236,0L70.8,35.093l-1.189-4.077a.551.551,0,1,0-1.058.308l1.718,5.89a.551.551,0,0,0,1.058,0l3.937-13.5,2.17,1.085a.17.17,0,0,1,.06.254l-1.248,1.664a.551.551,0,0,0,.051.72l1.166,1.166a.626.626,0,0,1,.117.723l-3.743,7.485a.551.551,0,1,0,.986.493l3.742-7.485a1.727,1.727,0,0,0-.324-2L77.414,27l.729-.972,4.131,1.27a2.967,2.967,0,0,1,2.106,2.851v6.914a.551.551,0,0,0,1.1,0V30.147A4.064,4.064,0,0,0,82.6,26.243ZM64.947,36.51H60.16V34.078H62v.038a.551.551,0,1,0,1.1,0v-.038h1.842ZM65.54,2.551a12.977,12.977,0,0,1,6.4-1.449c2.033,0,3.849.851,4.225,1.979a.551.551,0,0,0,1.045-.348,2.6,2.6,0,0,0-.112-.28A2.987,2.987,0,0,1,79.08,5.262v5.927h-.627a.627.627,0,0,1-.627-.627V9.973A7.019,7.019,0,0,0,75.9,5.461a.552.552,0,0,0-.556-.136c-3.058.966-7.371,1.78-10.546.174A5.927,5.927,0,0,1,62.65,3.716,27.1,27.1,0,0,0,65.54,2.551Zm8.828,20.3-1.052,3.608a5.345,5.345,0,0,1-5.038,0l-1.052-3.608V21.482a8.194,8.194,0,0,0,7.142,0ZM70.8,21.2a7.112,7.112,0,0,1-7.1-7.1.551.551,0,0,0-1.1,0v.038h-.332a.921.921,0,0,1-.916-1.018.978.978,0,0,1,1-.824h.8a1.731,1.731,0,0,0,1.729-1.729V8.482a.551.551,0,0,0-1.1,0v2.08a.627.627,0,0,1-.627.627h-.627V7.814a3.714,3.714,0,0,1,.5-2.145,7.573,7.573,0,0,0,1.193.769A10.285,10.285,0,0,0,68.63,7.509a20.852,20.852,0,0,0,6.7-1.026,5.806,5.806,0,0,1,1.392,3.491v.589a1.731,1.731,0,0,0,1.729,1.729h.883a.921.921,0,0,1,.916,1.018.977.977,0,0,1-1,.824H79V14.1a.551.551,0,0,0-.551-.551h0a.551.551,0,0,0-.551.551A7.113,7.113,0,0,1,70.8,21.2Z" transform="translate(-56.114)" fill="#00274a"/>
        </g>
      </g>
      <g id="Group_868" data-name="Group 868" transform="translate(22.377 31.799)">
        <g id="Group_867" data-name="Group 867">
          <path id="Path_511" data-name="Path 511" d="M364.223,434.343H363.3v-.921a.551.551,0,1,0-1.1,0v.921h-.921a.551.551,0,0,0,0,1.1h.921v.921a.551.551,0,1,0,1.1,0v-.921h.921a.551.551,0,0,0,0-1.1Z" transform="translate(-360.728 -432.871)" fill="#00274a"/>
        </g>
      </g>
    </g>
    <g id="Ellipse_4" data-name="Ellipse 4" transform="translate(105.205 26.166) rotate(120)" fill="none" stroke="#00274a" stroke-width="1">
      <ellipse cx="49.694" cy="26.166" rx="49.694" ry="26.166" stroke="none"/>
      <ellipse cx="49.694" cy="26.166" rx="49.194" ry="25.666" fill="none"/>
    </g>
    <ellipse id="Ellipse_5" data-name="Ellipse 5" cx="3" cy="2.5" rx="3" ry="2.5" transform="translate(60.947 12.431)" fill="#00274a"/>
    <ellipse id="Ellipse_6" data-name="Ellipse 6" cx="3" cy="3.5" rx="3" ry="3.5" transform="translate(66.947 79.431)" fill="#00274a"/>
    <ellipse id="Ellipse_7" data-name="Ellipse 7" cx="3" cy="4" rx="3" ry="4" transform="translate(13.947 39.431)" fill="#00274a"/>
  </g>
</svg>
