<svg id="hospital" xmlns="http://www.w3.org/2000/svg" width="83.807" height="83.807" viewBox="0 0 83.807 83.807">
  <g id="Group_870" data-name="Group 870">
    <path id="Path_512" data-name="Path 512" d="M79.96,76.114H68.83V26.13a1.228,1.228,0,0,0-2.455,0v2.826H17.433V16.86H31.673v1.53a1.885,1.885,0,0,0,1.882,1.882H37.4v3.847A1.885,1.885,0,0,0,39.285,26h5.238A1.885,1.885,0,0,0,46.4,24.118V20.272h3.847a1.885,1.885,0,0,0,1.882-1.882V16.86H66.375v4.021a1.228,1.228,0,1,0,2.455,0V15.632A1.228,1.228,0,0,0,67.6,14.4H58.845V1.228A1.228,1.228,0,0,0,57.617,0H36.461a1.228,1.228,0,1,0,0,2.455H56.39V14.4H52.134V13.151a1.885,1.885,0,0,0-1.882-1.882H46.4V7.422A1.885,1.885,0,0,0,44.523,5.54H39.285A1.885,1.885,0,0,0,37.4,7.422v3.847H33.556a1.885,1.885,0,0,0-1.882,1.882V14.4H27.417V2.455h3.989a1.228,1.228,0,1,0,0-2.455H26.19a1.228,1.228,0,0,0-1.228,1.228V14.4H16.2a1.228,1.228,0,0,0-1.228,1.228V76.114H3.847a3.847,3.847,0,0,0,0,7.693H15.632a1.228,1.228,0,1,0,0-2.455H3.847a1.391,1.391,0,0,1,0-2.783H79.96a1.391,1.391,0,0,1,0,2.783H20.991a1.228,1.228,0,1,0,0,2.455H79.96a3.847,3.847,0,1,0,0-7.693ZM34.128,13.724h3.847a1.885,1.885,0,0,0,1.882-1.882V8H43.95v3.847a1.885,1.885,0,0,0,1.882,1.882h3.847v4.092H45.832A1.885,1.885,0,0,0,43.95,19.7v3.847H39.857V19.7a1.885,1.885,0,0,0-1.882-1.882H34.128ZM66.351,31.411v2.455H17.433V31.411Zm-38.115,44.7V68.748h3.11v7.366Zm21.77-7.366v7.366H33.8V68.748Zm2.455,7.366V68.748h3.11v7.366Zm5.565,0V67.52A1.228,1.228,0,0,0,56.8,66.293H27.008a1.228,1.228,0,0,0-1.228,1.228v8.593H17.433V36.322H66.375V76.114Z" transform="translate(0 0)" fill="#00274a"/>
    <path id="Path_513" data-name="Path 513" d="M138.567,234.5h-8.839a1.228,1.228,0,0,0-1.228,1.228v8.184a1.228,1.228,0,0,0,1.228,1.228h8.839a1.228,1.228,0,0,0,1.228-1.228v-8.184A1.228,1.228,0,0,0,138.567,234.5Zm-1.228,8.184h-6.384v-5.729h6.384Z" transform="translate(-107.466 -196.116)" fill="#00274a"/>
    <path id="Path_514" data-name="Path 514" d="M324.567,234.5h-8.839a1.228,1.228,0,0,0-1.228,1.228v8.184a1.228,1.228,0,0,0,1.228,1.228h8.839a1.228,1.228,0,0,0,1.228-1.228v-8.184A1.228,1.228,0,0,0,324.567,234.5Zm-1.228,8.184h-6.384v-5.729h6.384Z" transform="translate(-263.021 -196.116)" fill="#00274a"/>
    <path id="Path_515" data-name="Path 515" d="M231.567,234.5h-8.839a1.228,1.228,0,0,0-1.228,1.228v8.184a1.228,1.228,0,0,0,1.228,1.228h8.839a1.228,1.228,0,0,0,1.228-1.228v-8.184A1.228,1.228,0,0,0,231.567,234.5Zm-1.228,8.184h-6.384v-5.729h6.384Z" transform="translate(-185.244 -196.116)" fill="#00274a"/>
    <path id="Path_516" data-name="Path 516" d="M138.567,321.5h-8.839a1.228,1.228,0,0,0-1.228,1.228v8.184a1.228,1.228,0,0,0,1.228,1.228h8.839a1.228,1.228,0,0,0,1.228-1.228v-8.184A1.228,1.228,0,0,0,138.567,321.5Zm-1.228,8.184h-6.384v-5.729h6.384Z" transform="translate(-107.466 -268.875)" fill="#00274a"/>
    <path id="Path_517" data-name="Path 517" d="M324.567,321.5h-8.839a1.228,1.228,0,0,0-1.228,1.228v8.184a1.228,1.228,0,0,0,1.228,1.228h8.839a1.228,1.228,0,0,0,1.228-1.228v-8.184A1.228,1.228,0,0,0,324.567,321.5Zm-1.228,8.184h-6.384v-5.729h6.384Z" transform="translate(-263.021 -268.875)" fill="#00274a"/>
    <path id="Path_518" data-name="Path 518" d="M231.567,321.5h-8.839a1.228,1.228,0,0,0-1.228,1.228v8.184a1.228,1.228,0,0,0,1.228,1.228h8.839a1.228,1.228,0,0,0,1.228-1.228v-8.184A1.228,1.228,0,0,0,231.567,321.5Zm-1.228,8.184h-6.384v-5.729h6.384Z" transform="translate(-185.244 -268.875)" fill="#00274a"/>
  </g>
</svg>
