<svg id="team" xmlns="http://www.w3.org/2000/svg" width="82.628" height="82.628" viewBox="0 0 82.628 82.628">
  <g id="Group_871" data-name="Group 871" stroke="#00274a">
    <path id="Path_519" data-name="Path 519" d="M81.418,45.977a1.21,1.21,0,0,0,1.21-1.21V41.8A7.741,7.741,0,0,0,74.9,34.071H74a9.362,9.362,0,1,0-12.551,0h-.9a7.731,7.731,0,0,0-6.836,4.113q-.244-.076-.493-.143l-6.459-1.73V32.872a10.669,10.669,0,0,0,5.211-8.932h1.4a3.818,3.818,0,0,0,.884-7.533v-3.3a13.111,13.111,0,0,0-26.222,0V16.5a3.818,3.818,0,0,0,1.21,7.44h1.4a10.669,10.669,0,0,0,5.211,8.932v3.439l-6.46,1.73q-.249.067-.493.143a7.732,7.732,0,0,0-6.836-4.113h-.9a9.362,9.362,0,1,0-12.551,0h-.9A7.741,7.741,0,0,0,0,41.8v2.963a1.21,1.21,0,0,0,2.421,0V41.8a5.317,5.317,0,0,1,5.311-5.311H22.077a5.31,5.31,0,0,1,4.591,2.642,12.645,12.645,0,0,0-6.616,11.1v6.5H2.421V50.415a1.21,1.21,0,0,0-2.421,0v7.529a1.21,1.21,0,0,0,1.21,1.21H28.444a15.116,15.116,0,0,0-2.094,5.156,1.21,1.21,0,0,0,2.373.482,12.848,12.848,0,1,1,0,5.138,1.21,1.21,0,0,0-2.372.482A15.269,15.269,0,1,0,54.185,59.154H81.418a1.21,1.21,0,0,0,1.21-1.21V50.415a1.21,1.21,0,1,0-2.421,0v6.318H62.577v-6.5a12.645,12.645,0,0,0-6.616-11.1,5.31,5.31,0,0,1,4.591-2.642H74.9A5.317,5.317,0,0,1,80.208,41.8v2.963a1.21,1.21,0,0,0,1.21,1.21ZM7.964,27.131a6.941,6.941,0,1,1,6.966,6.94h-.05a6.948,6.948,0,0,1-6.916-6.94ZM38.745,42.043l-1.172.976a2.05,2.05,0,0,1-3.288-1.028l-.709-2.561,2.506-.671A5.473,5.473,0,0,0,38.745,42.043Zm7.8-3.284,2.506.671-.709,2.561a2.05,2.05,0,0,1-3.288,1.028l-1.172-.976a5.473,5.473,0,0,0,2.663-3.284Zm8.23-18.637a1.4,1.4,0,0,1-1.4,1.4h-1.4v-2.8h1.4A1.4,1.4,0,0,1,54.776,20.121Zm-24.315-7.01a10.69,10.69,0,1,1,21.381,0V16.3H47.835a2.052,2.052,0,0,1-2.05-2.05,1.21,1.21,0,0,0-2.421,0,2.052,2.052,0,0,1-2.05,2.05H30.461Zm-2.608,7.01a1.4,1.4,0,0,1,1.4-1.4h1.4v2.8h-1.4A1.4,1.4,0,0,1,27.852,20.121Zm5.217,3.586V18.723h8.245a4.459,4.459,0,0,0,3.26-1.415,4.459,4.459,0,0,0,3.26,1.415h1.724v4.984a8.245,8.245,0,0,1-16.49,0Zm8.245,10.666a10.63,10.63,0,0,0,3.028-.441v3.306a3.028,3.028,0,0,1-6.057,0V33.933A10.63,10.63,0,0,0,41.314,34.373ZM60.156,50.232v6.5H52.267a15.235,15.235,0,0,0-21.9,0H22.473v-6.5a10.217,10.217,0,0,1,7.559-9.853l1.206-.323.715,2.581a4.469,4.469,0,0,0,7.171,2.241l2.191-1.826,2.191,1.826a4.471,4.471,0,0,0,7.171-2.241l.715-2.581,1.205.323A10.217,10.217,0,0,1,60.156,50.232Zm.628-23.1a6.941,6.941,0,1,1,6.966,6.94H67.7A6.948,6.948,0,0,1,60.783,27.131Z" transform="translate(0 0)"/>
    <path id="Path_520" data-name="Path 520" d="M209.653,387.3a4.031,4.031,0,0,0,2.869-1.188l6.229-6.229a4.058,4.058,0,0,0-5.739-5.739l-3.359,3.359a4.058,4.058,0,0,0-5.717,5.76l2.848,2.847A4.031,4.031,0,0,0,209.653,387.3Zm-4-8.062a1.639,1.639,0,0,1,2.315,0l.834.834a1.211,1.211,0,0,0,1.712,0l4.215-4.215a1.637,1.637,0,1,1,2.315,2.315L210.81,384.4a1.637,1.637,0,0,1-2.315,0l-2.847-2.847A1.639,1.639,0,0,1,205.648,379.237Z" transform="translate(-170.029 -312.768)"/>
  </g>
</svg>
