<svg xmlns="http://www.w3.org/2000/svg" width="23.484" height="19.505" viewBox="0 0 23.484 19.505">
  <g id="left-arrow-2" transform="translate(23.483 61.179) rotate(180)">
    <g id="Group_853" data-name="Group 853" transform="translate(0 41.674)">
      <path id="Path_504" data-name="Path 504" d="M22.163,49.585l.037.008H6.486l4.94-4.951a1.3,1.3,0,0,0,0-1.824l-.769-.769a1.286,1.286,0,0,0-1.815,0L.374,50.516a1.295,1.295,0,0,0,0,1.821L8.842,60.8a1.287,1.287,0,0,0,1.815,0l.769-.769a1.272,1.272,0,0,0,.375-.907,1.234,1.234,0,0,0-.375-.89l-5-4.979H22.181a1.331,1.331,0,0,0,1.3-1.317V50.855A1.305,1.305,0,0,0,22.163,49.585Z" transform="translate(0 -41.674)" fill="#00264b"/>
    </g>
  </g>
</svg>
