<svg xmlns="http://www.w3.org/2000/svg" width="9.264" height="15.684" viewBox="0 0 9.264 15.684">
  <g id="down-arrow" transform="translate(-100.698 15.684) rotate(-90)">
    <g id="Group_834" data-name="Group 834" transform="translate(0 100.698)">
      <path id="Path_502" data-name="Path 502" d="M15.434,101.472l-.514-.517a.86.86,0,0,0-1.214,0l-5.861,5.861-5.867-5.867a.86.86,0,0,0-1.213,0l-.514.514a.859.859,0,0,0,0,1.213l6.986,7.011a.877.877,0,0,0,.608.275h0a.877.877,0,0,0,.606-.275l6.979-6.992a.867.867,0,0,0,.251-.613A.858.858,0,0,0,15.434,101.472Z" transform="translate(0 -100.698)" fill="#aac148"/>
    </g>
  </g>
</svg>
